<svg xmlns="http://www.w3.org/2000/svg" width="512" height="512" viewBox="0 0 512 512" fill="none">
  <!-- The letter S from BBH Bartle, the brand wordmark face, as an outline
       rather than live text so it renders without the font. Volt (#c8ff00) on
       ink (#03080a), both from docs/src/styles/theme.css. -->
  <rect width="512" height="512" rx="116" fill="#03080a"/>
  <path transform="translate(65.8 76) scale(0.3)" d="M698 966L698 966Q576 966 452 950.50Q328 935 215 909.50Q102 884 14 854L14 854L107 691Q275 754 427.50 772.50Q580 791 720 791L720 791Q824 791 877 782.50Q930 774 930 755L930 755Q930 738 891.50 731Q853 724 788 722.50Q723 721 643 719L643 719Q564 717 479.50 712Q395 707 316 693.50Q237 680 174 654Q111 628 73.50 585Q36 542 36 477L36 477Q36 409 78.50 362Q121 315 195 287Q269 259 364.50 246.50Q460 234 565 234L565 234Q659 234 754.50 242.50Q850 251 940 265.50Q1030 280 1107 299Q1184 318 1239 339L1239 339L1146 502Q1061 472 958.50 451.50Q856 431 746 420.50Q636 410 528 410L528 410Q361 410 361 445L361 445Q361 461 400 468Q439 475 504.50 476.50Q570 478 649 480L649 480Q727 482 811.50 487Q896 492 974.50 505Q1053 518 1116.50 543.50Q1180 569 1217 611Q1254 653 1254 716L1254 716Q1254 785 1208.50 833Q1163 881 1085 910.50Q1007 940 907 953Q807 966 698 966Z" fill="#c8ff00"/>
</svg>
